<!DOCTYPE svg PUBLIC "-//W3C//DTD SVG 1.1//EN" "http://www.w3.org/Graphics/SVG/1.1/DTD/svg11.dtd">
<!-- Uploaded to: SVG Repo, www.svgrepo.com, Transformed by: SVG Repo Mixer Tools -->
<svg width="256px" height="256px" viewBox="-2 -2 24.00 24.00" version="1.1" xmlns="http://www.w3.org/2000/svg" xmlns:xlink="http://www.w3.org/1999/xlink" fill="#000000">
<g id="SVGRepo_bgCarrier" stroke-width="0">
<rect x="-2" y="-2" width="24.00" height="24.00" rx="2.88" fill="#3b82f6" strokewidth="0"/>
</g>
<g id="SVGRepo_tracerCarrier" stroke-linecap="round" stroke-linejoin="round"/>
<g id="SVGRepo_iconCarrier"> <title>door [#45]</title> <desc>Created with Sketch.</desc> <defs> </defs> <g id="Page-1" stroke="none" stroke-width="1" fill="none" fill-rule="evenodd"> <g id="Dribbble-Light-Preview" transform="translate(-180.000000, -7999.000000)" fill="#FFFFFF"> <g id="icons" transform="translate(56.000000, 160.000000)"> <path d="M131.25,7849.125 C131.25,7848.573 131.698,7848.125 132.25,7848.125 C132.802,7848.125 133.25,7848.573 133.25,7849.125 C133.25,7849.677 132.802,7850.125 132.25,7850.125 C131.698,7850.125 131.25,7849.677 131.25,7849.125 L131.25,7849.125 Z M130,7857 L138,7857 L138,7841 L130,7841 L130,7857 Z M140,7857 L140,7839 L128,7839 L128,7857 L124,7857 L124,7859 L144,7859 L144,7857 L140,7857 Z" id="door-[#45]"> </path> </g> </g> </g> </g>
</svg>